<?xml version="1.0" standalone="no"?><!DOCTYPE svg PUBLIC "-//W3C//DTD SVG 1.1//EN" "http://www.w3.org/Graphics/SVG/1.1/DTD/svg11.dtd"><svg t="1582293634749" class="icon" viewBox="0 0 1024 1024" version="1.1" xmlns="http://www.w3.org/2000/svg" p-id="9234" width="200" height="200"><path d="M64 288c0-12.8 12.8-32 32-32h12.8L320 108.8v-6.4c0-19.2 12.8-38.4 32-38.4s32 19.2 32 32v6.4l211.2 160h25.6l211.2-160V96c0-12.8 12.8-32 32-32s32 19.2 32 32c0 19.2-12.8 32-32 32h-12.8L640 288v6.4c0 12.8-12.8 25.6-32 25.6s-32-12.8-32-32v-6.4L364.8 128H345.6L128 288c0 19.2-12.8 32-32 32s-32-12.8-32-32z m864 608h-32V320h-64v576H640V448h-64v448H384V320h-64v576H128V448H64v448H32c-19.2 0-32 12.8-32 32s12.8 32 32 32h896c19.2 0 32-12.8 32-32s-12.8-32-32-32z" p-id="9235"></path></svg>
